<?xml version="1.0" encoding="utf-8"?>
<svg version="1.1" id="Layer_1"
xmlns="http://www.w3.org/2000/svg"
xmlns:xlink="http://www.w3.org/1999/xlink"
width="343px" height="121px"
xml:space="preserve">
<g id="PathID_1" transform="matrix(1.04632, 0, 0, 1.04632, 101.95, 79.85)" opacity="1">
<path style="fill:#000000;fill-opacity:1" d="M3.65 0L3.65 -36.05L19.1 -36.05Q29.65 -36.05 29.65 -27.15Q29.65 -17.2 14.8 -14.9L13.75 -19.6Q23.8 -21.25 23.8 -26.95Q23.8 -31.3 18.7 -31.3L9.2 -31.3L9.2 0L3.65 0" />
</g>
<g id="PathID_2" transform="matrix(1.04632, 0, 0, 1.04632, 101.95, 79.85)" opacity="1">
</g>
<g id="PathID_3" transform="matrix(1.04632, 0, 0, 1.04632, 131, 79.85)" opacity="1">
<path style="fill:#000000;fill-opacity:1" d="M25.25 -11.55L8 -11.55Q8 -4.65 17.45 -4.65Q20.8 -4.65 24.75 -5.4L24.75 -0.8Q20.9 0 15.95 0Q2.45 0 2.45 -13.65Q2.45 -26.75 15.25 -26.75Q27.6 -26.75 25.25 -11.55M8 -16.35L20.2 -16.35Q20.5 -22.1 14.55 -22.1Q8.4 -22.1 8 -16.35" />
</g>
<g id="PathID_4" transform="matrix(1.04632, 0, 0, 1.04632, 131, 79.85)" opacity="1">
</g>
<g id="PathID_5" transform="matrix(1.04632, 0, 0, 1.04632, 157.15, 79.85)" opacity="1">
<path style="fill:#000000;fill-opacity:1" d="M3.65 0L3.65 -26.75L7.65 -26.75L8.35 -23.45Q12.55 -26.75 17.45 -26.75Q26.85 -26.75 26.85 -16.65L26.85 0L21.3 0L21.3 -16.7Q21.3 -21.95 16.1 -21.95Q12.4 -21.95 9.2 -19L9.2 0L3.65 0" />
</g>
<g id="PathID_6" transform="matrix(1.04632, 0, 0, 1.04632, 157.15, 79.85)" opacity="1">
</g>
<g id="PathID_7" transform="matrix(1.04632, 0, 0, 1.04632, 185.2, 79.85)" opacity="1">
<path style="fill:#000000;fill-opacity:1" d="M3.65 -30.9L7.4 -30.9L8.4 -26.7L14.5 -26.7L14.5 -22.05L9.2 -22.05L9.2 -7.75Q9.2 -4.65 11.8 -4.65L14.5 -4.65L14.5 0L10.65 0Q3.65 0 3.65 -7.4L3.65 -30.9" />
</g>
<g id="PathID_8" transform="matrix(1.04632, 0, 0, 1.04632, 185.2, 79.85)" opacity="1">
</g>
<g id="PathID_9" transform="matrix(1.04632, 0, 0, 1.04632, 198.75, 79.85)" opacity="1">
<path style="fill:#000000;fill-opacity:1" d="M2.45 -8.5Q2.45 -16.95 13.4 -16.95Q17.25 -16.95 19.6 -16.45L19.6 -18.35Q19.6 -22.05 13.15 -22.05Q9.3 -22.05 4.5 -20.85L4.5 -25.4Q9.1 -26.75 13.15 -26.75Q25.15 -26.75 25.15 -18L25.15 0L22.1 0L20.4 -1.8Q17.3 0 12.6 0Q2.45 0 2.45 -8.5M13.4 -12.25Q8 -12.25 8 -8.6Q8 -4.65 12.6 -4.65Q17.15 -4.65 19.6 -6.45L19.6 -11.85Q17.35 -12.25 13.4 -12.25" />
</g>
<g id="PathID_10" transform="matrix(1.04632, 0, 0, 1.04632, 198.75, 79.85)" opacity="1">
</g>
<g id="PathID_11" transform="matrix(0.285945, 0, 0, 0.281959, 106.2, 100.3)" opacity="1">
<path style="fill:#999999;fill-opacity:1" d="M13.3 0L13.3 -32.3L1.2 -32.3L1.2 -36.65L30.25 -36.65L30.25 -32.3L18.15 -32.3L18.15 0L13.3 0" />
</g>
<g id="PathID_12" transform="matrix(0.285945, 0, 0, 0.281959, 106.2, 100.3)" opacity="1">
</g>
<g id="PathID_13" transform="matrix(0.285945, 0, 0, 0.281959, 115.05, 100.3)" opacity="1">
<path style="fill:#999999;fill-opacity:1" d="M3.4 0L3.4 -36.65L7.9 -36.65L7.9 -23.45Q11 -27.15 15.8 -27.15Q18.75 -27.15 20.9 -25.95Q23.05 -24.8 24 -22.75Q24.95 -20.7 24.95 -16.8L24.95 0L20.45 0L20.45 -16.8Q20.45 -20.15 18.95 -21.7Q17.5 -23.25 14.85 -23.25Q12.85 -23.25 11.1 -22.2Q9.35 -21.15 8.6 -19.35Q7.9 -17.6 7.9 -14.5L7.9 0L3.4 0" />
</g>
<g id="PathID_14" transform="matrix(0.285945, 0, 0, 0.281959, 115.05, 100.3)" opacity="1">
</g>
<g id="PathID_15" transform="matrix(0.285945, 0, 0, 0.281959, 123.2, 100.3)" opacity="1">
<path style="fill:#999999;fill-opacity:1" d="M21.55 -8.6L26.2 -8Q25.1 -3.9 22.1 -1.65Q19.15 0.6 14.5 0.6Q8.7 0.6 5.3 -2.95Q1.9 -6.55 1.9 -13.05Q1.9 -19.75 5.3 -23.45Q8.75 -27.15 14.25 -27.15Q19.6 -27.15 22.95 -23.5Q26.35 -19.9 26.35 -13.3L26.3 -12.15L6.55 -12.15Q6.75 -7.75 8.95 -5.4Q11.2 -3.1 14.55 -3.1Q17 -3.1 18.75 -4.4Q20.5 -5.7 21.55 -8.6M6.8 -15.85L21.6 -15.85Q21.3 -19.15 19.9 -20.85Q17.75 -23.45 14.3 -23.45Q11.2 -23.45 9.1 -21.35Q7 -19.3 6.8 -15.85" />
</g>
<g id="PathID_16" transform="matrix(0.285945, 0, 0, 0.281959, 123.2, 100.3)" opacity="1">
</g>
<g id="PathID_17" transform="matrix(0.285945, 0, 0, 0.281959, 135.4, 100.3)" opacity="1">
<path style="fill:#999999;fill-opacity:1" d="M3.4 0L3.4 -26.55L7.45 -26.55L7.45 -22.75Q10.35 -27.15 15.85 -27.15Q18.25 -27.15 20.25 -26.25Q22.3 -25.4 23.3 -24Q24.3 -22.6 24.7 -20.7Q24.95 -19.45 24.95 -16.3L24.95 0L20.45 0L20.45 -16.15Q20.45 -18.9 19.9 -20.25Q19.4 -21.6 18.05 -22.4Q16.7 -23.25 14.9 -23.25Q12.05 -23.25 9.95 -21.4Q7.9 -19.6 7.9 -14.5L7.9 0L3.4 0" />
</g>
<g id="PathID_18" transform="matrix(0.285945, 0, 0, 0.281959, 135.4, 100.3)" opacity="1">
</g>
<g id="PathID_19" transform="matrix(0.285945, 0, 0, 0.281959, 143.55, 100.3)" opacity="1">
<path style="fill:#999999;fill-opacity:1" d="M21.55 -8.6L26.2 -8Q25.1 -3.9 22.1 -1.65Q19.15 0.6 14.5 0.6Q8.7 0.6 5.3 -2.95Q1.9 -6.55 1.9 -13.05Q1.9 -19.75 5.3 -23.45Q8.75 -27.15 14.25 -27.15Q19.6 -27.15 22.95 -23.5Q26.35 -19.9 26.35 -13.3L26.3 -12.15L6.55 -12.15Q6.75 -7.75 8.95 -5.4Q11.2 -3.1 14.55 -3.1Q17 -3.1 18.75 -4.4Q20.5 -5.7 21.55 -8.6M6.8 -15.85L21.6 -15.85Q21.3 -19.15 19.9 -20.85Q17.75 -23.45 14.3 -23.45Q11.2 -23.45 9.1 -21.35Q7 -19.3 6.8 -15.85" />
</g>
<g id="PathID_20" transform="matrix(0.285945, 0, 0, 0.281959, 143.55, 100.3)" opacity="1">
</g>
<g id="PathID_21" transform="matrix(0.285945, 0, 0, 0.281959, 151.65, 100.3)" opacity="1">
<path style="fill:#999999;fill-opacity:1" d="M0.35 0L10.05 -13.75L1.1 -26.55L6.6 -26.55L10.8 -20.3L12.6 -17.35L14.65 -20.25L19.15 -26.55L24.55 -26.55L15.55 -13.75L25.25 0L19.75 0L14.25 -8.25L12.95 -10.25L5.85 0L0.35 0" />
</g>
<g id="PathID_22" transform="matrix(0.285945, 0, 0, 0.281959, 151.65, 100.3)" opacity="1">
</g>
<g id="PathID_23" transform="matrix(0.285945, 0, 0, 0.281959, 159, 100.3)" opacity="1">
<path style="fill:#999999;fill-opacity:1" d="M13.2 -4L13.8 -0.05Q11.9 0.35 10.4 0.35Q7.95 0.35 6.6 -0.4Q5.25 -1.2 4.7 -2.45Q4.15 -3.7 4.15 -7.75L4.15 -23.05L0.8 -23.05L0.8 -26.55L4.15 -26.55L4.15 -33.1L8.65 -35.8L8.65 -26.55L13.2 -26.55L13.2 -23.05L8.65 -23.05L8.65 -7.5Q8.65 -5.6 8.85 -5.05Q9.1 -4.5 9.65 -4.15Q10.2 -3.85 11.2 -3.85Q11.95 -3.85 13.2 -4" />
</g>
<g id="PathID_24" transform="matrix(0.285945, 0, 0, 0.281959, 159, 100.3)" opacity="1">
</g>
<g id="PathID_25" transform="matrix(0.285945, 0, 0, 0.281959, 167.05, 100.3)" opacity="1">
<path style="fill:#999999;fill-opacity:1" d="M2.55 2.2L6.95 2.8Q7.2 4.85 8.45 5.8Q10.1 7.05 13 7.05Q16.1 7.05 17.8 5.8Q19.5 4.55 20.1 2.3Q20.45 0.95 20.45 -3.5Q17.5 0 13.1 0Q7.6 0 4.6 -3.95Q1.65 -7.9 1.65 -13.4Q1.65 -17.2 3 -20.4Q4.4 -23.65 7 -25.4Q9.6 -27.15 13.15 -27.15Q17.85 -27.15 20.9 -23.3L20.9 -26.55L25.05 -26.55L25.05 -3.55Q25.05 2.65 23.75 5.2Q22.5 7.8 19.75 9.3Q17.05 10.8 13.05 10.8Q8.3 10.8 5.35 8.65Q2.45 6.55 2.55 2.2M6.3 -13.7Q6.3 -8.5 8.35 -6.1Q10.4 -3.75 13.55 -3.75Q16.65 -3.75 18.75 -6.1Q20.85 -8.5 20.85 -13.6Q20.85 -18.45 18.65 -20.9Q16.5 -23.4 13.45 -23.4Q10.45 -23.4 8.35 -20.95Q6.3 -18.5 6.3 -13.7" />
</g>
<g id="PathID_26" transform="matrix(0.285945, 0, 0, 0.281959, 167.05, 100.3)" opacity="1">
</g>
<g id="PathID_27" transform="matrix(0.285945, 0, 0, 0.281959, 175.2, 100.3)" opacity="1">
<path style="fill:#999999;fill-opacity:1" d="M21.55 -8.6L26.2 -8Q25.1 -3.9 22.1 -1.65Q19.15 0.6 14.5 0.6Q8.7 0.6 5.3 -2.95Q1.9 -6.55 1.9 -13.05Q1.9 -19.75 5.3 -23.45Q8.75 -27.15 14.25 -27.15Q19.6 -27.15 22.95 -23.5Q26.35 -19.9 26.35 -13.3L26.3 -12.15L6.55 -12.15Q6.75 -7.75 8.95 -5.4Q11.2 -3.1 14.55 -3.1Q17 -3.1 18.75 -4.4Q20.5 -5.7 21.55 -8.6M6.8 -15.85L21.6 -15.85Q21.3 -19.15 19.9 -20.85Q17.75 -23.45 14.3 -23.45Q11.2 -23.45 9.1 -21.35Q7 -19.3 6.8 -15.85" />
</g>
<g id="PathID_28" transform="matrix(0.285945, 0, 0, 0.281959, 175.2, 100.3)" opacity="1">
</g>
<g id="PathID_29" transform="matrix(0.285945, 0, 0, 0.281959, 183.35, 100.3)" opacity="1">
<path style="fill:#999999;fill-opacity:1" d="M3.4 0L3.4 -26.55L7.45 -26.55L7.45 -22.75Q10.35 -27.15 15.85 -27.15Q18.25 -27.15 20.25 -26.25Q22.3 -25.4 23.3 -24Q24.3 -22.6 24.7 -20.7Q24.95 -19.45 24.95 -16.3L24.95 0L20.45 0L20.45 -16.15Q20.45 -18.9 19.9 -20.25Q19.4 -21.6 18.05 -22.4Q16.7 -23.25 14.9 -23.25Q12.05 -23.25 9.95 -21.4Q7.9 -19.6 7.9 -14.5L7.9 0L3.4 0" />
</g>
<g id="PathID_30" transform="matrix(0.285945, 0, 0, 0.281959, 183.35, 100.3)" opacity="1">
</g>
<g id="PathID_31" transform="matrix(0.285945, 0, 0, 0.281959, 191.45, 100.3)" opacity="1">
<path style="fill:#999999;fill-opacity:1" d="M21.55 -8.6L26.2 -8Q25.1 -3.9 22.1 -1.65Q19.15 0.6 14.5 0.6Q8.7 0.6 5.3 -2.95Q1.9 -6.55 1.9 -13.05Q1.9 -19.75 5.3 -23.45Q8.75 -27.15 14.25 -27.15Q19.6 -27.15 22.95 -23.5Q26.35 -19.9 26.35 -13.3L26.3 -12.15L6.55 -12.15Q6.75 -7.75 8.95 -5.4Q11.2 -3.1 14.55 -3.1Q17 -3.1 18.75 -4.4Q20.5 -5.7 21.55 -8.6M6.8 -15.85L21.6 -15.85Q21.3 -19.15 19.9 -20.85Q17.75 -23.45 14.3 -23.45Q11.2 -23.45 9.1 -21.35Q7 -19.3 6.8 -15.85" />
</g>
<g id="PathID_32" transform="matrix(0.285945, 0, 0, 0.281959, 191.45, 100.3)" opacity="1">
</g>
<g id="PathID_33" transform="matrix(0.285945, 0, 0, 0.281959, 199.6, 100.3)" opacity="1">
<path style="fill:#999999;fill-opacity:1" d="M3.35 0L3.35 -26.55L7.4 -26.55L7.4 -22.5Q8.9 -25.35 10.2 -26.25Q11.55 -27.15 13.1 -27.15Q15.4 -27.15 17.75 -25.7L16.15 -21.5Q14.55 -22.5 12.9 -22.5Q11.4 -22.5 10.2 -21.6Q9.05 -20.7 8.55 -19.15Q7.85 -16.75 7.85 -13.9L7.85 0L3.35 0" />
</g>
<g id="PathID_34" transform="matrix(0.285945, 0, 0, 0.281959, 199.6, 100.3)" opacity="1">
</g>
<g id="PathID_35" transform="matrix(0.285945, 0, 0, 0.281959, 204.45, 100.3)" opacity="1">
<path style="fill:#999999;fill-opacity:1" d="M20.7 -3.35Q18.2 -1.15 15.85 -0.25Q13.55 0.6 10.9 0.6Q6.55 0.6 4.2 -1.5Q1.85 -3.65 1.85 -7Q1.85 -8.95 2.7 -10.55Q3.6 -12.15 5.05 -13.1Q6.5 -14.1 8.3 -14.6Q9.6 -14.95 12.3 -15.3Q17.75 -15.95 20.3 -16.85L20.35 -18Q20.35 -20.75 19.05 -21.85Q17.35 -23.4 13.95 -23.4Q10.75 -23.4 9.25 -22.25Q7.75 -21.15 7.05 -18.35L2.65 -18.95Q3.25 -21.75 4.6 -23.5Q6 -25.25 8.6 -26.2Q11.2 -27.15 14.6 -27.15Q18 -27.15 20.1 -26.3Q22.25 -25.5 23.25 -24.3Q24.25 -23.1 24.65 -21.25Q24.9 -20.1 24.9 -17.1L24.9 -11.1Q24.9 -4.85 25.15 -3.15Q25.45 -1.5 26.3 0L21.6 0Q20.9 -1.4 20.7 -3.35M20.3 -13.3Q17.85 -12.3 12.95 -11.6Q10.15 -11.2 9 -10.7Q7.85 -10.2 7.25 -9.2Q6.65 -8.25 6.65 -7.1Q6.65 -5.3 8 -4.1Q9.35 -2.95 12 -2.95Q14.6 -2.95 16.6 -4.05Q18.65 -5.2 19.6 -7.15Q20.3 -8.65 20.3 -11.65L20.3 -13.3" />
</g>
<g id="PathID_36" transform="matrix(0.285945, 0, 0, 0.281959, 204.45, 100.3)" opacity="1">
</g>
<g id="PathID_37" transform="matrix(0.285945, 0, 0, 0.281959, 212.6, 100.3)" opacity="1">
<path style="fill:#999999;fill-opacity:1" d="M13.2 -4L13.8 -0.05Q11.9 0.35 10.4 0.35Q7.95 0.35 6.6 -0.4Q5.25 -1.2 4.7 -2.45Q4.15 -3.7 4.15 -7.75L4.15 -23.05L0.8 -23.05L0.8 -26.55L4.15 -26.55L4.15 -33.1L8.65 -35.8L8.65 -26.55L13.2 -26.55L13.2 -23.05L8.65 -23.05L8.65 -7.5Q8.65 -5.6 8.85 -5.05Q9.1 -4.5 9.65 -4.15Q10.2 -3.85 11.2 -3.85Q11.95 -3.85 13.2 -4" />
</g>
<g id="PathID_38" transform="matrix(0.285945, 0, 0, 0.281959, 212.6, 100.3)" opacity="1">
</g>
<g id="PathID_39" transform="matrix(0.285945, 0, 0, 0.281959, 216.65, 100.3)" opacity="1">
<path style="fill:#999999;fill-opacity:1" d="M3.4 -31.5L3.4 -36.65L7.9 -36.65L7.9 -31.5L3.4 -31.5M3.4 0L3.4 -26.55L7.9 -26.55L7.9 0L3.4 0" />
</g>
<g id="PathID_40" transform="matrix(0.285945, 0, 0, 0.281959, 216.65, 100.3)" opacity="1">
</g>
<g id="PathID_41" transform="matrix(0.285945, 0, 0, 0.281959, 219.85, 100.3)" opacity="1">
<path style="fill:#999999;fill-opacity:1" d="M1.7 -13.25Q1.7 -20.65 5.8 -24.2Q9.2 -27.15 14.15 -27.15Q19.6 -27.15 23.1 -23.55Q26.6 -19.95 26.6 -13.65Q26.6 -8.5 25.05 -5.55Q23.5 -2.65 20.55 -1Q17.6 0.6 14.15 0.6Q8.55 0.6 5.1 -2.95Q1.7 -6.55 1.7 -13.25M6.35 -13.25Q6.35 -8.15 8.55 -5.6Q10.75 -3.1 14.15 -3.1Q17.5 -3.1 19.7 -5.6Q21.95 -8.15 21.95 -13.4Q21.95 -18.3 19.7 -20.85Q17.45 -23.4 14.15 -23.4Q10.75 -23.4 8.55 -20.85Q6.35 -18.35 6.35 -13.25" />
</g>
<g id="PathID_42" transform="matrix(0.285945, 0, 0, 0.281959, 219.85, 100.3)" opacity="1">
</g>
<g id="PathID_43" transform="matrix(0.285945, 0, 0, 0.281959, 228, 100.3)" opacity="1">
<path style="fill:#999999;fill-opacity:1" d="M3.4 0L3.4 -26.55L7.45 -26.55L7.45 -22.75Q10.35 -27.15 15.85 -27.15Q18.25 -27.15 20.25 -26.25Q22.3 -25.4 23.3 -24Q24.3 -22.6 24.7 -20.7Q24.95 -19.45 24.95 -16.3L24.95 0L20.45 0L20.45 -16.15Q20.45 -18.9 19.9 -20.25Q19.4 -21.6 18.05 -22.4Q16.7 -23.25 14.9 -23.25Q12.05 -23.25 9.95 -21.4Q7.9 -19.6 7.9 -14.5L7.9 0L3.4 0" />
</g>
<g id="PathID_44" transform="matrix(0.285945, 0, 0, 0.281959, 228, 100.3)" opacity="1">
</g>
<g id="PathID_45" transform="matrix(0.285945, 0, 0, 0.281959, 240.15, 100.3)" opacity="1">
<path style="fill:#999999;fill-opacity:1" d="M1.7 -13.25Q1.7 -20.65 5.8 -24.2Q9.2 -27.15 14.15 -27.15Q19.6 -27.15 23.1 -23.55Q26.6 -19.95 26.6 -13.65Q26.6 -8.5 25.05 -5.55Q23.5 -2.65 20.55 -1Q17.6 0.6 14.15 0.6Q8.55 0.6 5.1 -2.95Q1.7 -6.55 1.7 -13.25M6.35 -13.25Q6.35 -8.15 8.55 -5.6Q10.75 -3.1 14.15 -3.1Q17.5 -3.1 19.7 -5.6Q21.95 -8.15 21.95 -13.4Q21.95 -18.3 19.7 -20.85Q17.45 -23.4 14.15 -23.4Q10.75 -23.4 8.55 -20.85Q6.35 -18.35 6.35 -13.25" />
</g>
<g id="PathID_46" transform="matrix(0.285945, 0, 0, 0.281959, 240.15, 100.3)" opacity="1">
</g>
<g id="PathID_47" transform="matrix(0.285945, 0, 0, 0.281959, 248.3, 100.3)" opacity="1">
<path style="fill:#999999;fill-opacity:1" d="M4.45 0L4.45 -23.05L0.45 -23.05L0.45 -26.55L4.45 -26.55L4.45 -29.35Q4.45 -32 4.9 -33.3Q5.55 -35.05 7.2 -36.15Q8.85 -37.25 11.8 -37.25Q13.7 -37.25 16 -36.75L15.35 -32.85Q13.95 -33.1 12.7 -33.1Q10.65 -33.1 9.8 -32.2Q8.95 -31.35 8.95 -28.95L8.95 -26.55L14.1 -26.55L14.1 -23.05L8.95 -23.05L8.95 0L4.45 0" />
</g>
<g id="PathID_48" transform="matrix(0.285945, 0, 0, 0.281959, 248.3, 100.3)" opacity="1">
</g>
<g id="PathID_49" transform="matrix(0.285945, 0, 0, 0.281959, 256.35, 100.3)" opacity="1">
<path style="fill:#999999;fill-opacity:1" d="M20.7 -3.35Q18.2 -1.15 15.85 -0.25Q13.55 0.6 10.9 0.6Q6.55 0.6 4.2 -1.5Q1.85 -3.65 1.85 -7Q1.85 -8.95 2.7 -10.55Q3.6 -12.15 5.05 -13.1Q6.5 -14.1 8.3 -14.6Q9.6 -14.95 12.3 -15.3Q17.75 -15.95 20.3 -16.85L20.35 -18Q20.35 -20.75 19.05 -21.85Q17.35 -23.4 13.95 -23.4Q10.75 -23.4 9.25 -22.25Q7.75 -21.15 7.05 -18.35L2.65 -18.95Q3.25 -21.75 4.6 -23.5Q6 -25.25 8.6 -26.2Q11.2 -27.15 14.6 -27.15Q18 -27.15 20.1 -26.3Q22.25 -25.5 23.25 -24.3Q24.25 -23.1 24.65 -21.25Q24.9 -20.1 24.9 -17.1L24.9 -11.1Q24.9 -4.85 25.15 -3.15Q25.45 -1.5 26.3 0L21.6 0Q20.9 -1.4 20.7 -3.35M20.3 -13.3Q17.85 -12.3 12.95 -11.6Q10.15 -11.2 9 -10.7Q7.85 -10.2 7.25 -9.2Q6.65 -8.25 6.65 -7.1Q6.65 -5.3 8 -4.1Q9.35 -2.95 12 -2.95Q14.6 -2.95 16.6 -4.05Q18.65 -5.2 19.6 -7.15Q20.3 -8.65 20.3 -11.65L20.3 -13.3" />
</g>
<g id="PathID_50" transform="matrix(0.285945, 0, 0, 0.281959, 256.35, 100.3)" opacity="1">
</g>
<g id="PathID_51" transform="matrix(0.285945, 0, 0, 0.281959, 264.5, 100.3)" opacity="1">
<path style="fill:#999999;fill-opacity:1" d="M20.55 0L20.55 -3.35Q18 0.6 13.1 0.6Q9.95 0.6 7.25 -1.15Q4.6 -2.9 3.15 -6Q1.7 -9.15 1.7 -13.25Q1.7 -17.2 3 -20.45Q4.35 -23.7 7 -25.4Q9.65 -27.15 12.9 -27.15Q15.3 -27.15 17.15 -26.1Q19.05 -25.1 20.25 -23.45L20.25 -36.65L24.75 -36.65L24.75 0L20.55 0M6.35 -13.2Q6.35 -8.1 8.5 -5.6Q10.65 -3.1 13.6 -3.1Q16.55 -3.1 18.6 -5.5Q20.7 -7.9 20.7 -12.85Q20.7 -18.3 18.55 -20.85Q16.45 -23.4 13.35 -23.4Q10.35 -23.4 8.35 -20.95Q6.35 -18.5 6.35 -13.2" />
</g>
<g id="PathID_52" transform="matrix(0.285945, 0, 0, 0.281959, 264.5, 100.3)" opacity="1">
</g>
<g id="PathID_53" transform="matrix(0.285945, 0, 0, 0.281959, 272.65, 100.3)" opacity="1">
<path style="fill:#999999;fill-opacity:1" d="M10.7 0L0.6 -26.55L5.4 -26.55L11.1 -10.65Q12 -8.05 12.8 -5.3Q13.4 -7.4 14.5 -10.35L20.4 -26.55L25.05 -26.55L14.95 0L10.7 0" />
</g>
<g id="PathID_54" transform="matrix(0.285945, 0, 0, 0.281959, 272.65, 100.3)" opacity="1">
</g>
<g id="PathID_55" transform="matrix(0.285945, 0, 0, 0.281959, 279.95, 100.3)" opacity="1">
<path style="fill:#999999;fill-opacity:1" d="M21.55 -8.6L26.2 -8Q25.1 -3.9 22.1 -1.65Q19.15 0.6 14.5 0.6Q8.7 0.6 5.3 -2.95Q1.9 -6.55 1.9 -13.05Q1.9 -19.75 5.3 -23.45Q8.75 -27.15 14.25 -27.15Q19.6 -27.15 22.95 -23.5Q26.35 -19.9 26.35 -13.3L26.3 -12.15L6.55 -12.15Q6.75 -7.75 8.95 -5.4Q11.2 -3.1 14.55 -3.1Q17 -3.1 18.75 -4.4Q20.5 -5.7 21.55 -8.6M6.8 -15.85L21.6 -15.85Q21.3 -19.15 19.9 -20.85Q17.75 -23.45 14.3 -23.45Q11.2 -23.45 9.1 -21.35Q7 -19.3 6.8 -15.85" />
</g>
<g id="PathID_56" transform="matrix(0.285945, 0, 0, 0.281959, 279.95, 100.3)" opacity="1">
</g>
<g id="PathID_57" transform="matrix(0.285945, 0, 0, 0.281959, 288.1, 100.3)" opacity="1">
<path style="fill:#999999;fill-opacity:1" d="M3.35 0L3.35 -26.55L7.4 -26.55L7.4 -22.5Q8.9 -25.35 10.2 -26.25Q11.55 -27.15 13.1 -27.15Q15.4 -27.15 17.75 -25.7L16.15 -21.5Q14.55 -22.5 12.9 -22.5Q11.4 -22.5 10.2 -21.6Q9.05 -20.7 8.55 -19.15Q7.85 -16.75 7.85 -13.9L7.85 0L3.35 0" />
</g>
<g id="PathID_58" transform="matrix(0.285945, 0, 0, 0.281959, 288.1, 100.3)" opacity="1">
</g>
<g id="PathID_59" transform="matrix(0.285945, 0, 0, 0.281959, 292.95, 100.3)" opacity="1">
<path style="fill:#999999;fill-opacity:1" d="M13.2 -4L13.8 -0.05Q11.9 0.35 10.4 0.35Q7.95 0.35 6.6 -0.4Q5.25 -1.2 4.7 -2.45Q4.15 -3.7 4.15 -7.75L4.15 -23.05L0.8 -23.05L0.8 -26.55L4.15 -26.55L4.15 -33.1L8.65 -35.8L8.65 -26.55L13.2 -26.55L13.2 -23.05L8.65 -23.05L8.65 -7.5Q8.65 -5.6 8.85 -5.05Q9.1 -4.5 9.65 -4.15Q10.2 -3.85 11.2 -3.85Q11.95 -3.85 13.2 -4" />
</g>
<g id="PathID_60" transform="matrix(0.285945, 0, 0, 0.281959, 292.95, 100.3)" opacity="1">
</g>
<g id="PathID_61" transform="matrix(0.285945, 0, 0, 0.281959, 297, 100.3)" opacity="1">
<path style="fill:#999999;fill-opacity:1" d="M3.4 -31.5L3.4 -36.65L7.9 -36.65L7.9 -31.5L3.4 -31.5M3.4 0L3.4 -26.55L7.9 -26.55L7.9 0L3.4 0" />
</g>
<g id="PathID_62" transform="matrix(0.285945, 0, 0, 0.281959, 297, 100.3)" opacity="1">
</g>
<g id="PathID_63" transform="matrix(0.285945, 0, 0, 0.281959, 300.2, 100.3)" opacity="1">
<path style="fill:#999999;fill-opacity:1" d="M1.6 -7.95L6.05 -8.65Q6.4 -5.95 8.1 -4.5Q9.8 -3.1 12.9 -3.1Q16 -3.1 17.5 -4.35Q19 -5.6 19 -7.3Q19 -8.85 17.65 -9.7Q16.75 -10.3 13.1 -11.25Q8.15 -12.5 6.2 -13.4Q4.3 -14.3 3.3 -15.9Q2.35 -17.55 2.35 -19.5Q2.35 -21.25 3.15 -22.75Q3.95 -24.3 5.35 -25.3Q6.4 -26.05 8.2 -26.6Q10.05 -27.15 12.1 -27.15Q15.25 -27.15 17.6 -26.25Q19.95 -25.35 21.05 -23.8Q22.2 -22.25 22.65 -19.7L18.25 -19.1Q17.95 -21.15 16.5 -22.3Q15.05 -23.45 12.45 -23.45Q9.35 -23.45 8 -22.4Q6.7 -21.4 6.7 -20Q6.7 -19.15 7.25 -18.45Q7.8 -17.7 8.95 -17.25L12.95 -16.1Q17.7 -14.8 19.6 -14Q21.5 -13.2 22.55 -11.65Q23.65 -10.1 23.65 -7.8Q23.65 -5.55 22.3 -3.55Q21 -1.55 18.5 -0.45Q16.05 0.6 12.95 0.6Q7.75 0.6 5.05 -1.55Q2.35 -3.7 1.6 -7.95" />
</g>
<g id="PathID_64" transform="matrix(0.285945, 0, 0, 0.281959, 300.2, 100.3)" opacity="1">
</g>
<g id="PathID_65" transform="matrix(0.285945, 0, 0, 0.281959, 307.5, 100.3)" opacity="1">
<path style="fill:#999999;fill-opacity:1" d="M3.4 -31.5L3.4 -36.65L7.9 -36.65L7.9 -31.5L3.4 -31.5M3.4 0L3.4 -26.55L7.9 -26.55L7.9 0L3.4 0" />
</g>
<g id="PathID_66" transform="matrix(0.285945, 0, 0, 0.281959, 307.5, 100.3)" opacity="1">
</g>
<g id="PathID_67" transform="matrix(0.285945, 0, 0, 0.281959, 310.7, 100.3)" opacity="1">
<path style="fill:#999999;fill-opacity:1" d="M3.4 0L3.4 -26.55L7.45 -26.55L7.45 -22.75Q10.35 -27.15 15.85 -27.15Q18.25 -27.15 20.25 -26.25Q22.3 -25.4 23.3 -24Q24.3 -22.6 24.7 -20.7Q24.95 -19.45 24.95 -16.3L24.95 0L20.45 0L20.45 -16.15Q20.45 -18.9 19.9 -20.25Q19.4 -21.6 18.05 -22.4Q16.7 -23.25 14.9 -23.25Q12.05 -23.25 9.95 -21.4Q7.9 -19.6 7.9 -14.5L7.9 0L3.4 0" />
</g>
<g id="PathID_68" transform="matrix(0.285945, 0, 0, 0.281959, 310.7, 100.3)" opacity="1">
</g>
<g id="PathID_69" transform="matrix(0.285945, 0, 0, 0.281959, 318.85, 100.3)" opacity="1">
<path style="fill:#999999;fill-opacity:1" d="M2.55 2.2L6.95 2.8Q7.2 4.85 8.45 5.8Q10.1 7.05 13 7.05Q16.1 7.05 17.8 5.8Q19.5 4.55 20.1 2.3Q20.45 0.95 20.45 -3.5Q17.5 0 13.1 0Q7.6 0 4.6 -3.95Q1.65 -7.9 1.65 -13.4Q1.65 -17.2 3 -20.4Q4.4 -23.65 7 -25.4Q9.6 -27.15 13.15 -27.15Q17.85 -27.15 20.9 -23.3L20.9 -26.55L25.05 -26.55L25.05 -3.55Q25.05 2.65 23.75 5.2Q22.5 7.8 19.75 9.3Q17.05 10.8 13.05 10.8Q8.3 10.8 5.35 8.65Q2.45 6.55 2.55 2.2M6.3 -13.7Q6.3 -8.5 8.35 -6.1Q10.4 -3.75 13.55 -3.75Q16.65 -3.75 18.75 -6.1Q20.85 -8.5 20.85 -13.6Q20.85 -18.45 18.65 -20.9Q16.5 -23.4 13.45 -23.4Q10.45 -23.4 8.35 -20.95Q6.3 -18.5 6.3 -13.7" />
</g>
<g id="PathID_70" transform="matrix(0.285945, 0, 0, 0.281959, 318.85, 100.3)" opacity="1">
</g>
<g id="PathID_71" transform="matrix(1.04632, 0, 0, 1.04632, 226.05, 79.85)" opacity="1">
<path style="fill:#F1232C;fill-opacity:1" d="M3.75 0L3.75 -26.25L6.85 -26.25L7.65 -22.95Q12.15 -26.25 16.6 -26.25Q21.55 -26.25 23.65 -22.65Q28.65 -26.25 33.05 -26.25Q41.35 -26.25 41.35 -16.25L41.35 0L36.75 0L36.75 -16.5Q36.75 -22.4 31.8 -22.4Q28.1 -22.4 24.85 -19L24.85 0L20.25 0L20.25 -16.45Q20.25 -22.4 15.35 -22.4Q11.45 -22.4 8.35 -19L8.35 0L3.75 0" />
</g>
<g id="PathID_72" transform="matrix(1.04632, 0, 0, 1.04632, 226.05, 79.85)" opacity="1">
</g>
<g id="PathID_73" transform="matrix(1.04632, 0, 0, 1.04632, 269.8, 79.85)" opacity="1">
<path style="fill:#F1232C;fill-opacity:1" d="M15 -3.75Q22.85 -3.75 22.85 -13.2Q22.85 -22.5 15 -22.5Q7.1 -22.5 7.1 -13.2Q7.1 -3.75 15 -3.75M2.5 -13.1Q2.5 -26.25 15 -26.25Q27.5 -26.25 27.5 -13.1Q27.5 0 15 0Q2.55 0 2.5 -13.1" />
</g>
<g id="PathID_74" transform="matrix(1.04632, 0, 0, 1.04632, 269.8, 79.85)" opacity="1">
</g>
<g id="PathID_75" transform="matrix(1.04632, 0, 0, 1.04632, 297.7, 79.85)" opacity="1">
<path style="fill:#F1232C;fill-opacity:1" d="M8.35 -4.55Q10.65 -3.85 13.9 -3.85Q22.65 -3.85 22.65 -13.8Q22.65 -22.25 14.7 -22.25Q11.1 -22.25 8.35 -20.9L8.35 -4.55M3.75 -35.75L8.35 -35.75L8.35 -25Q11.35 -26.25 14.75 -26.25Q27.2 -26.25 27.2 -13.65Q27.2 0 14.1 0Q8.45 0 3.75 -1.05L3.75 -35.75" />
</g>
<g id="PathID_76" transform="matrix(1.04632, 0, 0, 1.04632, 297.7, 79.85)" opacity="1">
</g>
<g id="PathID_77" transform="matrix(0.960411, -0.278586, 0.278586, 0.960411, 54.25, 60.4)" opacity="1">
<path style="fill:#010203;fill-opacity:0" d="M33.05 36.05L-14.65 46.6L-47.65 10.6L-33 -35.95L14.7 -46.55L47.7 -10.55L33.05 36.05" />
</g>
<g id="PathID_78" transform="matrix(0.960411, -0.278586, 0.278586, 0.960411, 54.25, 60.4)" opacity="1">
<path style="fill:none;stroke-width:3.3;stroke-linecap:round;stroke-linejoin:round;stroke-miterlimit:3;stroke:#000000;stroke-opacity:1" d="M33 36L-14.6 46.55L-47.65 10.6L-33 -35.95L14.65 -46.55L47.7 -10.55L33 36z" />
</g>
<g id="PathID_79" transform="matrix(0.99999, 0.00455985, -0.00455985, 0.99999, 87.35, 57.65)" opacity="1">
</g>
<g id="PathID_80" transform="matrix(0.99999, 0.00455985, -0.00455985, 0.99999, 87.35, 57.65)" opacity="1">
<path style="fill:none;stroke-width:4.95;stroke-linecap:round;stroke-linejoin:round;stroke-miterlimit:3;stroke:#000000;stroke-opacity:1" d="M0 -16.95L0 16.95" />
</g>
</svg>
